<svg xmlns="http://www.w3.org/2000/svg" xmlns:xlink="http://www.w3.org/1999/xlink" xmlns:lucid="lucid" width="820.5" height="520"><g transform="translate(-279.5 -340)" lucid:page-tab-id="w-wFB~zZMdV7"><path d="M0 0h1870.87v1322.84H0z" fill="#fff"/><path d="M460 362a2 2 0 0 1 2-2h616a2 2 0 0 1 2 2v476a2 2 0 0 1-2 2H462a2 2 0 0 1-2-2z" fill="#f6f6f6"/><use xlink:href="#a" transform="matrix(1,0,0,1,476,376) translate(0 16.69921875)"/><use xlink:href="#b" transform="matrix(1,0,0,1,476,376) translate(61.2509765625 16.69921875)"/><use xlink:href="#c" transform="matrix(1,0,0,1,476,376) translate(112.130859375 16.69921875)"/><path d="M646.46 544.88l-26.36-45.3c-2.05-3.63-5.64-5.68-9.86-5.8h-52.48c-4.22.12-7.8 2.17-9.86 5.8l-26.36 45.2c-2.05 3.5-2.05 7.6 0 11.25l26.36 45.52c2.05 3.75 5.5 5.92 9.86 6.03h52.48c4.22-.1 7.8-2.28 9.86-6.03l26.36-45.17c2.05-3.76 2.05-7.86 0-11.5z" stroke="#000" stroke-opacity="0" fill="#4285f4"/><path d="M599.64 529.37l-25.24 7.74-5.83 3.37 8.47 8.3-11.5.7.23 10.7-6.4 7.98 39.8 39.4h11.1c4.23-.16 7.82-2.27 9.9-6.02l19.1-32.9z" stroke="#000" stroke-opacity="0" fill-opacity=".07"/><path d="M582 539.8h4v21.5h-4v-21.5zM564.94 549.68H568v12.86h-4V550.6c0-.5.42-.92.94-.92zM599.98 549.68h3.07c.5 0 .93.4.93.93v11.94h-4v-12.86z" stroke="#000" stroke-opacity="0" fill="#fff"/><path d="M565 547.7H603c.56 0 1 .45 1 1v2.96H564v-2.97c0-.55.45-1 1-1zM568.97 528.9h30.05c.64 0 .96.33.96.97v9.95c0 .64-.32.96-.96.96h-30.05c-.64 0-.96-.32-.96-.96v-9.95c0-.64.33-.96.97-.96zM560 558.58h11.03c.65 0 .97.33.97.97v7.96c0 .65-.32.98-.97.98H560c-.66 0-1-.33-1-.97v-7.95c0-.64.34-.97 1-.97zM596.96 558.58H608c.65 0 .98.33.98.97v7.96c0 .65-.33.98-.98.98h-11.04c-.65 0-.98-.33-.98-.97v-7.95c0-.64.33-.97.98-.97zM578 558.58H590c.67 0 1 .34 1 1v7.9c0 .66-.33 1-1 1H578c-.66 0-1-.34-1-1v-7.9c0-.66.34-1 1-1z" stroke="#000" stroke-opacity="0" fill="#fff"/><use xlink:href="#d" transform="matrix(1,0,0,1,520,612.58) translate(0.17283950617284916 17.77777777777778)"/><use xlink:href="#e" transform="matrix(1,0,0,1,520,612.58) translate(70.41975308641975 17.77777777777778)"/><use xlink:href="#f" transform="matrix(1,0,0,1,520,612.58) translate(39.308641975308646 44.44444444444444)"/><use xlink:href="#g" transform="matrix(1,0,0,1,520,612.58) translate(20.234567901234563 71.11111111111111)"/><g filter="url(#h)"><path d="M300 488.7a2 2 0 0 1 2-2h84a2 2 0 0 1 2 2v123.98a2 2 0 0 1-2 2h-84a2 2 0 0 1-2-2z" fill="#fff"/><path d="M356 527.7c2.5 0 4.6-.9 6.36-2.65 1.76-1.76 2.64-3.88 2.64-6.37 0-2.48-.88-4.6-2.64-6.36-1.75-1.75-3.87-2.64-6.36-2.64-2.5 0-4.6.9-6.36 2.64-1.76 1.76-2.64 3.88-2.64 6.36 0 2.5.88 4.6 2.64 6.37 1.75 1.75 3.87 2.64 6.36 2.64zm-24 0c2.5 0 4.6-.9 6.36-2.65 1.76-1.76 2.64-3.88 2.64-6.37 0-2.48-.88-4.6-2.64-6.36-1.75-1.75-3.87-2.64-6.36-2.64-2.5 0-4.6.9-6.36 2.64-1.76 1.76-2.64 3.88-2.64 6.36 0 2.5.88 4.6 2.64 6.37 1.75 1.75 3.87 2.64 6.36 2.64zm0 5.98c-7 0-21 3.52-21 10.5v7.5h42v-7.5c0-7-14-10.5-21-10.5zm24 0c-.87 0-1.86.07-2.9.16 3.47 2.5 5.9 5.9 5.9 10.34v7.5h18v-7.5c0-7-14-10.5-21-10.5zm0 0" fill="#757575"/><use xlink:href="#i" transform="matrix(1,0,0,1,300,567.685) translate(27.0134736328125 28.05751953125)"/></g><path d="M388.5 550.68h115.16" stroke="#3a414a" fill="none"/><path d="M388.5 551.18h-.5v-1h.5z" stroke="#3a414a" stroke-width=".05" fill="#3a414a"/><path d="M518.43 550.68l-14.27 4.64v-9.27z" stroke="#3a414a" fill="#3a414a"/><path d="M648.46 550.68H760.1a6 6 0 0 0 6-6V442.9a6 6 0 0 1 6-6h95.75" stroke="#3a414a" fill="none"/><path d="M648.47 551.18h-.57l.1-.86-.02-.14h.5z" stroke="#3a414a" stroke-width=".05" fill="#3a414a"/><path d="M882.6 436.9l-14.25 4.63v-9.27z" stroke="#3a414a" fill="#3a414a"/><path d="M648.46 550.68H760.1a6 6 0 0 1 6 6v98.74a6 6 0 0 0 6 6h95.75" stroke="#3a414a" fill="none"/><path d="M648.47 551.18h-.57l.1-.86-.02-.14h.5z" stroke="#3a414a" stroke-width=".05" fill="#3a414a"/><path d="M882.6 661.42l-14.25 4.63v-9.27z" stroke="#3a414a" fill="#3a414a"/><path d="M910.35 380l22.27 56.9h66.8L910.36 380z" stroke="#000" stroke-opacity="0" fill="#aecbfa"/><path d="M999.43 436.9h-66.8l-22.28 56.9 89.08-56.9zM871.43 493.8l22.3-9.5 16.62-47.4h-22.22l-16.7 56.9z" stroke="#000" stroke-opacity="0" fill="#4285f4"/><path d="M871.43 380l16.7 56.9h22.22l-16.62-47.45-22.3-9.45z" stroke="#000" stroke-opacity="0" fill="#aecbfa"/><path d="M884.23 391.38v91.03h44.8V391.4z" stroke="#000" stroke-opacity="0" fill-opacity="0"/><use xlink:href="#j" transform="matrix(1,0,0,1,871.4330708661416,498.79) translate(11.623456790123463 17.77777777777778)"/><use xlink:href="#k" transform="matrix(1,0,0,1,871.4330708661416,498.79) translate(75.69753086419752 17.77777777777778)"/><use xlink:href="#l" transform="matrix(1,0,0,1,871.4330708661416,498.79) translate(35.66666666666667 44.44444444444444)"/><use xlink:href="#m" transform="matrix(1,0,0,1,871.4330708661416,498.79) translate(84.98765432098766 44.44444444444444)"/><use xlink:href="#n" transform="matrix(1,0,0,1,871.4330708661416,498.79) translate(-56.80246913580244 71.11111111111111)"/><path d="M910.35 604.52l22.27 56.9h66.8l-89.07-56.9z" stroke="#000" stroke-opacity="0" fill="#aecbfa"/><path d="M999.43 661.42h-66.8l-22.28 56.9 89.08-56.9zM871.43 718.3l22.3-9.5 16.62-47.38h-22.22l-16.7 56.9z" stroke="#000" stroke-opacity="0" fill="#4285f4"/><path d="M871.43 604.52l16.7 56.9h22.22l-16.62-47.45-22.3-9.45z" stroke="#000" stroke-opacity="0" fill="#aecbfa"/><path d="M884.23 615.9v91.03h44.8V615.9z" stroke="#000" stroke-opacity="0" fill-opacity="0"/><g><use xlink:href="#j" transform="matrix(1,0,0,1,871.4330708661416,723.3123228346456) translate(11.623456790123463 17.77777777777778)"/><use xlink:href="#k" transform="matrix(1,0,0,1,871.4330708661416,723.3123228346456) translate(75.69753086419752 17.77777777777778)"/><use xlink:href="#l" transform="matrix(1,0,0,1,871.4330708661416,723.3123228346456) translate(35.66666666666667 44.44444444444444)"/><use xlink:href="#m" transform="matrix(1,0,0,1,871.4330708661416,723.3123228346456) translate(84.98765432098766 44.44444444444444)"/><use xlink:href="#o" transform="matrix(1,0,0,1,871.4330708661416,723.3123228346456) translate(-56.80246913580244 71.11111111111111)"/></g><defs><path d="M730-137c145 0 253-29 323-105v-327H716v-156h528v534C1148-51 964 20 729 20c-394 0-598-279-607-678v-127c-5-410 194-690 585-691 310-1 499 171 537 447h-192c-36-193-151-289-344-289-285 0-393 220-393 528v119c-5 296 140 534 415 534" id="p"/><path d="M584 20C278 26 81-227 91-551c10-320 175-545 491-551 308-5 503 247 494 573-9 322-175 543-492 549zm-2-970c-208 0-305 185-305 421 0 216 106 398 307 398 211 0 307-186 307-420 0-214-109-399-309-399" id="q"/><path d="M521 20C240 20 96-239 96-550c0-303 147-552 427-552 132 0 235 47 309 140l9-120h169V-26c4 277-183 454-459 452-165-1-334-81-400-187l96-111c79 98 176 147 291 147 180 1 288-109 286-290v-93C750-23 649 20 521 20zm48-965c-209 0-287 178-287 416 0 217 86 392 285 392 117 0 202-53 257-159v-494c-57-103-142-155-255-155" id="r"/><path d="M341 0H156v-1536h185V0" id="s"/><path d="M599-131c141 0 220-65 285-146l113 88C906-50 770 20 589 20 281 21 93-214 93-545c0-223 93-397 233-485 74-48 154-72 240-72 300 2 449 218 445 537v77H278c0 197 129 357 321 357zm227-509c-3-180-88-310-260-310-170 0-264 140-282 310h542" id="t"/><g id="a"><use transform="matrix(0.0087890625,0,0,0.0087890625,0,0)" xlink:href="#p"/><use transform="matrix(0.0087890625,0,0,0.0087890625,12.2607421875,0)" xlink:href="#q"/><use transform="matrix(0.0087890625,0,0,0.0087890625,22.5263671875,0)" xlink:href="#q"/><use transform="matrix(0.0087890625,0,0,0.0087890625,32.7919921875,0)" xlink:href="#r"/><use transform="matrix(0.0087890625,0,0,0.0087890625,42.890625,0)" xlink:href="#s"/><use transform="matrix(0.0087890625,0,0,0.0087890625,47.2587890625,0)" xlink:href="#t"/></g><path d="M688-137c238 0 323-102 359-325h193c-32 297-228 482-552 482-361 0-569-299-569-680 0-197 8-360 73-497 88-186 257-317 513-319 316-2 509 195 535 488h-193c-31-212-118-330-342-330-272 0-397 224-393 523v141c-3 282 115 517 376 517" id="u"/><path d="M491 20c-241-1-355-148-355-398v-704h185v699c0 164 67 246 200 246 141 0 235-53 282-158v-787h185V0H812l-4-107C736-22 630 20 491 20" id="v"/><path d="M520 20C244 20 95-247 95-550c0-298 151-550 427-552 127 0 227 43 301 130v-564h185V0H838l-9-116C755-25 652 20 520 20zm48-965c-210 0-288 177-288 416 0 218 87 392 286 392 117 0 203-53 257-158v-497c-55-102-140-153-255-153" id="w"/><g id="b"><use transform="matrix(0.0087890625,0,0,0.0087890625,0,0)" xlink:href="#u"/><use transform="matrix(0.0087890625,0,0,0.0087890625,11.7158203125,0)" xlink:href="#s"/><use transform="matrix(0.0087890625,0,0,0.0087890625,16.083984375,0)" xlink:href="#q"/><use transform="matrix(0.0087890625,0,0,0.0087890625,26.349609375,0)" xlink:href="#v"/><use transform="matrix(0.0087890625,0,0,0.0087890625,36.2724609375,0)" xlink:href="#w"/></g><path d="M1216-1011c-1 297-202 441-512 441H361V0H169v-1456h537c297-6 510 164 510 445zm-192 2c1-178-126-288-307-289H361v571h345c196 1 318-92 318-282" id="x"/><path d="M663-916c-163-27-288 18-338 148V0H140v-1082h180l3 125c61-97 147-145 258-145 36 0 63 5 82 14v172" id="y"/><path d="M19 279c92 0 127-48 127-150v-1211h185V125c0 208-94 312-283 312-41 0-78-6-113-18V271c21 5 49 8 84 8zm216-1543c-68 0-107-42-108-105 0-61 42-107 108-107 68 0 110 44 110 107s-42 105-110 105" id="z"/><path d="M277-555c0 244 77 420 297 424 127 2 249-93 255-210h175C980-127 805 20 574 20 258 20 81-222 92-562c11-319 164-533 481-540 237-5 426 165 431 392H829c-7-133-115-242-256-240-209 4-296 166-296 395" id="A"/><path d="M456 20C285 20 205-92 206-268v-671H9v-143h197v-262h185v262h202v143H391v671c-9 125 92 149 207 118V0c-49 13-96 20-142 20" id="B"/><g id="c"><use transform="matrix(0.0087890625,0,0,0.0087890625,0,0)" xlink:href="#x"/><use transform="matrix(0.0087890625,0,0,0.0087890625,11.35546875,0)" xlink:href="#y"/><use transform="matrix(0.0087890625,0,0,0.0087890625,17.2705078125,0)" xlink:href="#q"/><use transform="matrix(0.0087890625,0,0,0.0087890625,27.5361328125,0)" xlink:href="#z"/><use transform="matrix(0.0087890625,0,0,0.0087890625,31.833984375,0)" xlink:href="#t"/><use transform="matrix(0.0087890625,0,0,0.0087890625,41.3701171875,0)" xlink:href="#A"/><use transform="matrix(0.0087890625,0,0,0.0087890625,50.7919921875,0)" xlink:href="#B"/></g><path fill="#3a414a" d="M143 4C61 4 22-44 18-125c-5-107 100-154 193-111 17 8 29 25 37 43l-32 9c-13-25-37-40-76-40-61 0-88 39-88 99 0 61 29 100 91 101 35 0 62-11 79-27v-45h-74v-28h105v86C228-13 192 4 143 4" id="C"/><path fill="#3a414a" d="M24 0v-261h32V0H24" id="D"/><path fill="#3a414a" d="M100-194c62-1 85 37 85 99 1 63-27 99-86 99S16-35 15-95c0-66 28-99 85-99zM99-20c44 1 53-31 53-75 0-43-8-75-51-75s-53 32-53 75 10 74 51 75" id="E"/><path fill="#3a414a" d="M115-194c53 0 69 39 70 98 0 66-23 100-70 100C84 3 66-7 56-30L54 0H23l1-261h32v101c10-23 28-34 59-34zm-8 174c40 0 45-34 45-75 0-40-5-75-45-74-42 0-51 32-51 76 0 43 10 73 51 73" id="F"/><path fill="#3a414a" d="M141-36C126-15 110 5 73 4 37 3 15-17 15-53c-1-64 63-63 125-63 3-35-9-54-41-54-24 1-41 7-42 31l-33-3c5-37 33-52 76-52 45 0 72 20 72 64v82c-1 20 7 32 28 27v20c-31 9-61-2-59-35zM48-53c0 20 12 33 32 33 41-3 63-29 60-74-43 2-92-5-92 41" id="G"/><g id="d"><use transform="matrix(0.06172839506172839,0,0,0.06172839506172839,0,0)" xlink:href="#C"/><use transform="matrix(0.06172839506172839,0,0,0.06172839506172839,17.28395061728395,0)" xlink:href="#D"/><use transform="matrix(0.06172839506172839,0,0,0.06172839506172839,22.160493827160494,0)" xlink:href="#E"/><use transform="matrix(0.06172839506172839,0,0,0.06172839506172839,34.50617283950617,0)" xlink:href="#F"/><use transform="matrix(0.06172839506172839,0,0,0.06172839506172839,46.85185185185185,0)" xlink:href="#G"/><use transform="matrix(0.06172839506172839,0,0,0.06172839506172839,59.197530864197525,0)" xlink:href="#D"/></g><path fill="#3a414a" d="M197 0v-115H63V0H30v-248h33v105h134v-105h34V0h-34" id="H"/><path fill="#3a414a" d="M127-220V0H93v-220H8v-28h204v28h-85" id="I"/><path fill="#3a414a" d="M30-248c87 1 191-15 191 75 0 78-77 80-158 76V0H30v-248zm33 125c57 0 124 11 124-50 0-59-68-47-124-48v98" id="J"/><g id="e"><use transform="matrix(0.06172839506172839,0,0,0.06172839506172839,0,0)" xlink:href="#H"/><use transform="matrix(0.06172839506172839,0,0,0.06172839506172839,15.987654320987653,0)" xlink:href="#I"/><use transform="matrix(0.06172839506172839,0,0,0.06172839506172839,29.50617283950617,0)" xlink:href="#I"/><use transform="matrix(0.06172839506172839,0,0,0.06172839506172839,43.02469135802469,0)" xlink:href="#J"/></g><path fill="#3a414a" d="M30 0v-248h33v221h125V0H30" id="K"/><path fill="#3a414a" d="M85-194c31 0 48 13 60 33l-1-100h32l1 261h-30c-2-10 0-23-3-31C134-8 116 4 85 4 32 4 16-35 15-94c0-66 23-100 70-100zm9 24c-40 0-46 34-46 75 0 40 6 74 45 74 42 0 51-32 51-76 0-42-9-74-50-73" id="L"/><g id="f"><use transform="matrix(0.06172839506172839,0,0,0.06172839506172839,0,0)" xlink:href="#K"/><use transform="matrix(0.06172839506172839,0,0,0.06172839506172839,12.345679012345679,0)" xlink:href="#E"/><use transform="matrix(0.06172839506172839,0,0,0.06172839506172839,24.691358024691358,0)" xlink:href="#G"/><use transform="matrix(0.06172839506172839,0,0,0.06172839506172839,37.03703703703704,0)" xlink:href="#L"/></g><path fill="#3a414a" d="M160-131c35 5 61 23 61 61C221 17 115-2 30 0v-248c76 3 177-17 177 60 0 33-19 50-47 57zm-97-11c50-1 110 9 110-42 0-47-63-36-110-37v79zm0 115c55-2 124 14 124-45 0-56-70-42-124-44v89" id="M"/><path fill="#3a414a" d="M117-194c89-4 53 116 60 194h-32v-121c0-31-8-49-39-48C34-167 62-67 57 0H25l-1-190h30c1 10-1 24 2 32 11-22 29-35 61-36" id="N"/><path fill="#3a414a" d="M96-169c-40 0-48 33-48 73s9 75 48 75c24 0 41-14 43-38l32 2c-6 37-31 61-74 61-59 0-76-41-82-99-10-93 101-131 147-64 4 7 5 14 7 22l-32 3c-4-21-16-35-41-35" id="O"/><path fill="#3a414a" d="M100-194c63 0 86 42 84 106H49c0 40 14 67 53 68 26 1 43-12 49-29l28 8c-11 28-37 45-77 45C44 4 14-33 15-96c1-61 26-98 85-98zm52 81c6-60-76-77-97-28-3 7-6 17-6 28h103" id="P"/><path fill="#3a414a" d="M114-163C36-179 61-72 57 0H25l-1-190h30c1 12-1 29 2 39 6-27 23-49 58-41v29" id="Q"/><g id="g"><use transform="matrix(0.06172839506172839,0,0,0.06172839506172839,0,0)" xlink:href="#M"/><use transform="matrix(0.06172839506172839,0,0,0.06172839506172839,14.814814814814813,0)" xlink:href="#G"/><use transform="matrix(0.06172839506172839,0,0,0.06172839506172839,27.160493827160494,0)" xlink:href="#D"/><use transform="matrix(0.06172839506172839,0,0,0.06172839506172839,32.03703703703704,0)" xlink:href="#G"/><use transform="matrix(0.06172839506172839,0,0,0.06172839506172839,44.382716049382715,0)" xlink:href="#N"/><use transform="matrix(0.06172839506172839,0,0,0.06172839506172839,56.72839506172839,0)" xlink:href="#O"/><use transform="matrix(0.06172839506172839,0,0,0.06172839506172839,67.8395061728395,0)" xlink:href="#P"/><use transform="matrix(0.06172839506172839,0,0,0.06172839506172839,80.18518518518519,0)" xlink:href="#Q"/></g><path d="M665-137c214 0 337-121 336-332v-987h193v990c-3 300-218 486-529 486-309 0-526-181-525-484v-992h190v986c-1 210 123 333 335 333" id="R"/><path d="M538-131c121 0 232-49 232-156 0-50-20-88-56-117-73-60-334-92-420-143-92-55-162-110-162-238 0-190 192-317 400-317 223 0 414 129 413 338H759c0-108-110-186-227-186-119 0-215 53-215 159 0 45 18 78 53 101 76 52 331 90 416 139 98 57 169 115 169 251C955-92 760 20 538 20c-176 0-314-68-386-174-38-55-57-115-57-179h185c6 129 116 202 258 202" id="S"/><g id="i"><use transform="matrix(0.0065107421875,0,0,0.0065107421875,0,0)" xlink:href="#R"/><use transform="matrix(0.0065107421875,0,0,0.0065107421875,8.646265625,0)" xlink:href="#S"/><use transform="matrix(0.0065107421875,0,0,0.0065107421875,15.521609374999999,0)" xlink:href="#t"/><use transform="matrix(0.0065107421875,0,0,0.0065107421875,22.5857646484375,0)" xlink:href="#y"/><use transform="matrix(0.0065107421875,0,0,0.0065107421875,27.097708984375,0)" xlink:href="#S"/></g><filter id="h" filterUnits="objectBoundingBox" x="-.02" y="0" width="1.03" height="1.02"><feOffset result="offOut" in="SourceAlpha" dy="1"/><feGaussianBlur result="blurOut" in="offOut" stdDeviation=".75"/><feColorMatrix result="colorOut" in="blurOut" values="0 0 0 0 0 0 0 0 0 0 0 0 0 0 0 0 0 0 0.4 0"/><feBlend in="SourceGraphic" in2="colorOut"/></filter><path fill="#3a414a" d="M212-179c-10-28-35-45-73-45-59 0-87 40-87 99 0 60 29 101 89 101 43 0 62-24 78-52l27 14C228-24 195 4 139 4 59 4 22-46 18-125c-6-104 99-153 187-111 19 9 31 26 39 46" id="T"/><path fill="#3a414a" d="M84 4C-5 8 30-112 23-190h32v120c0 31 7 50 39 49 72-2 45-101 50-169h31l1 190h-30c-1-10 1-25-2-33-11 22-28 36-60 37" id="U"/><g id="j"><use transform="matrix(0.06172839506172839,0,0,0.06172839506172839,0,0)" xlink:href="#T"/><use transform="matrix(0.06172839506172839,0,0,0.06172839506172839,15.987654320987653,0)" xlink:href="#D"/><use transform="matrix(0.06172839506172839,0,0,0.06172839506172839,20.864197530864196,0)" xlink:href="#E"/><use transform="matrix(0.06172839506172839,0,0,0.06172839506172839,33.20987654320987,0)" xlink:href="#U"/><use transform="matrix(0.06172839506172839,0,0,0.06172839506172839,45.55555555555555,0)" xlink:href="#L"/></g><path fill="#3a414a" d="M233-177c-1 41-23 64-60 70L243 0h-38l-65-103H63V0H30v-248c88 3 205-21 203 71zM63-129c60-2 137 13 137-47 0-61-80-42-137-45v92" id="V"/><g id="k"><use transform="matrix(0.06172839506172839,0,0,0.06172839506172839,0,0)" xlink:href="#V"/><use transform="matrix(0.06172839506172839,0,0,0.06172839506172839,15.987654320987653,0)" xlink:href="#U"/><use transform="matrix(0.06172839506172839,0,0,0.06172839506172839,28.333333333333332,0)" xlink:href="#N"/></g><path fill="#3a414a" d="M16-82v-28h88v28H16" id="W"/><path fill="#3a414a" d="M205 0l-28-72H64L36 0H1l101-248h38L239 0h-34zm-38-99l-47-123c-12 45-31 82-46 123h93" id="X"/><path fill="#3a414a" d="M33 0v-248h34V0H33" id="Y"/><g id="l"><use transform="matrix(0.06172839506172839,0,0,0.06172839506172839,0,0)" xlink:href="#W"/><use transform="matrix(0.06172839506172839,0,0,0.06172839506172839,7.345679012345679,0)" xlink:href="#X"/><use transform="matrix(0.06172839506172839,0,0,0.06172839506172839,22.160493827160494,0)" xlink:href="#J"/><use transform="matrix(0.06172839506172839,0,0,0.06172839506172839,36.9753086419753,0)" xlink:href="#Y"/></g><use transform="matrix(0.06172839506172839,0,0,0.06172839506172839,0,0)" xlink:href="#W" id="m"/><path fill="#3a414a" d="M59-47c-2 24 18 29 38 22v24C64 9 27 4 27-40v-127H5v-23h24l9-43h21v43h35v23H59v120" id="Z"/><path fill="#3a414a" d="M106-169C34-169 62-67 57 0H25v-261h32l-1 103c12-21 28-36 61-36 89 0 53 116 60 194h-32v-121c2-32-8-49-39-48" id="aa"/><path fill="#3a414a" d="M210-169c-67 3-38 105-44 169h-31v-121c0-29-5-50-35-48C34-165 62-65 56 0H25l-1-190h30c1 10-1 24 2 32 10-44 99-50 107 0 11-21 27-35 58-36 85-2 47 119 55 194h-31v-121c0-29-5-49-35-48" id="ab"/><path fill="#3a414a" d="M24-231v-30h32v30H24zM24 0v-190h32V0H24" id="ac"/><path fill="#3a414a" d="M135-143c-3-34-86-38-87 0 15 53 115 12 119 90S17 21 10-45l28-5c4 36 97 45 98 0-10-56-113-15-118-90-4-57 82-63 122-42 12 7 21 19 24 35" id="ad"/><path fill="#3a414a" d="M27 0v-27h64v-190l-56 39v-29l58-41h29v221h61V0H27" id="ae"/><g id="n"><use transform="matrix(0.06172839506172839,0,0,0.06172839506172839,0,0)" xlink:href="#N"/><use transform="matrix(0.06172839506172839,0,0,0.06172839506172839,12.345679012345679,0)" xlink:href="#E"/><use transform="matrix(0.06172839506172839,0,0,0.06172839506172839,24.691358024691358,0)" xlink:href="#Q"/><use transform="matrix(0.06172839506172839,0,0,0.06172839506172839,32.03703703703704,0)" xlink:href="#Z"/><use transform="matrix(0.06172839506172839,0,0,0.06172839506172839,38.20987654320988,0)" xlink:href="#aa"/><use transform="matrix(0.06172839506172839,0,0,0.06172839506172839,50.55555555555556,0)" xlink:href="#G"/><use transform="matrix(0.06172839506172839,0,0,0.06172839506172839,62.901234567901234,0)" xlink:href="#ab"/><use transform="matrix(0.06172839506172839,0,0,0.06172839506172839,81.35802469135803,0)" xlink:href="#P"/><use transform="matrix(0.06172839506172839,0,0,0.06172839506172839,93.70370370370371,0)" xlink:href="#Q"/><use transform="matrix(0.06172839506172839,0,0,0.06172839506172839,101.0493827160494,0)" xlink:href="#ac"/><use transform="matrix(0.06172839506172839,0,0,0.06172839506172839,105.92592592592594,0)" xlink:href="#O"/><use transform="matrix(0.06172839506172839,0,0,0.06172839506172839,117.03703703703705,0)" xlink:href="#G"/><use transform="matrix(0.06172839506172839,0,0,0.06172839506172839,129.38271604938274,0)" xlink:href="#W"/><use transform="matrix(0.06172839506172839,0,0,0.06172839506172839,136.7283950617284,0)" xlink:href="#N"/><use transform="matrix(0.06172839506172839,0,0,0.06172839506172839,149.07407407407408,0)" xlink:href="#E"/><use transform="matrix(0.06172839506172839,0,0,0.06172839506172839,161.41975308641975,0)" xlink:href="#Q"/><use transform="matrix(0.06172839506172839,0,0,0.06172839506172839,168.76543209876542,0)" xlink:href="#Z"/><use transform="matrix(0.06172839506172839,0,0,0.06172839506172839,174.93827160493825,0)" xlink:href="#aa"/><use transform="matrix(0.06172839506172839,0,0,0.06172839506172839,187.28395061728392,0)" xlink:href="#P"/><use transform="matrix(0.06172839506172839,0,0,0.06172839506172839,199.6296296296296,0)" xlink:href="#G"/><use transform="matrix(0.06172839506172839,0,0,0.06172839506172839,211.97530864197526,0)" xlink:href="#ad"/><use transform="matrix(0.06172839506172839,0,0,0.06172839506172839,223.08641975308637,0)" xlink:href="#Z"/><use transform="matrix(0.06172839506172839,0,0,0.06172839506172839,229.2592592592592,0)" xlink:href="#ae"/></g><path fill="#3a414a" d="M101-251c82-7 93 87 43 132L82-64C71-53 59-42 53-27h129V0H18c2-99 128-94 128-182 0-28-16-43-45-43s-46 15-49 41l-32-3c6-41 34-60 81-64" id="af"/><g id="o"><use transform="matrix(0.06172839506172839,0,0,0.06172839506172839,0,0)" xlink:href="#N"/><use transform="matrix(0.06172839506172839,0,0,0.06172839506172839,12.345679012345679,0)" xlink:href="#E"/><use transform="matrix(0.06172839506172839,0,0,0.06172839506172839,24.691358024691358,0)" xlink:href="#Q"/><use transform="matrix(0.06172839506172839,0,0,0.06172839506172839,32.03703703703704,0)" xlink:href="#Z"/><use transform="matrix(0.06172839506172839,0,0,0.06172839506172839,38.20987654320988,0)" xlink:href="#aa"/><use transform="matrix(0.06172839506172839,0,0,0.06172839506172839,50.55555555555556,0)" xlink:href="#G"/><use transform="matrix(0.06172839506172839,0,0,0.06172839506172839,62.901234567901234,0)" xlink:href="#ab"/><use transform="matrix(0.06172839506172839,0,0,0.06172839506172839,81.35802469135803,0)" xlink:href="#P"/><use transform="matrix(0.06172839506172839,0,0,0.06172839506172839,93.70370370370371,0)" xlink:href="#Q"/><use transform="matrix(0.06172839506172839,0,0,0.06172839506172839,101.0493827160494,0)" xlink:href="#ac"/><use transform="matrix(0.06172839506172839,0,0,0.06172839506172839,105.92592592592594,0)" xlink:href="#O"/><use transform="matrix(0.06172839506172839,0,0,0.06172839506172839,117.03703703703705,0)" xlink:href="#G"/><use transform="matrix(0.06172839506172839,0,0,0.06172839506172839,129.38271604938274,0)" xlink:href="#W"/><use transform="matrix(0.06172839506172839,0,0,0.06172839506172839,136.7283950617284,0)" xlink:href="#N"/><use transform="matrix(0.06172839506172839,0,0,0.06172839506172839,149.07407407407408,0)" xlink:href="#E"/><use transform="matrix(0.06172839506172839,0,0,0.06172839506172839,161.41975308641975,0)" xlink:href="#Q"/><use transform="matrix(0.06172839506172839,0,0,0.06172839506172839,168.76543209876542,0)" xlink:href="#Z"/><use transform="matrix(0.06172839506172839,0,0,0.06172839506172839,174.93827160493825,0)" xlink:href="#aa"/><use transform="matrix(0.06172839506172839,0,0,0.06172839506172839,187.28395061728392,0)" xlink:href="#P"/><use transform="matrix(0.06172839506172839,0,0,0.06172839506172839,199.6296296296296,0)" xlink:href="#G"/><use transform="matrix(0.06172839506172839,0,0,0.06172839506172839,211.97530864197526,0)" xlink:href="#ad"/><use transform="matrix(0.06172839506172839,0,0,0.06172839506172839,223.08641975308637,0)" xlink:href="#Z"/><use transform="matrix(0.06172839506172839,0,0,0.06172839506172839,229.2592592592592,0)" xlink:href="#af"/></g></defs></g></svg>