<svg xmlns="http://www.w3.org/2000/svg" xmlns:xlink="http://www.w3.org/1999/xlink" xmlns:lucid="lucid" width="740.5" height="380"><g transform="translate(-339.5 -400)" lucid:page-tab-id="w-wFB~zZMdV7"><path d="M0 0h1870.87v1322.84H0z" fill="#fff"/><path d="M519.26 422a2 2 0 0 1 2-2H1058a2 2 0 0 1 2 2v336a2 2 0 0 1-2 2H521.26a2 2 0 0 1-2-2z" fill="#f6f6f6"/><use xlink:href="#a" transform="matrix(1,0,0,1,535.2592592592592,436) translate(0 16.69921875)"/><use xlink:href="#b" transform="matrix(1,0,0,1,535.2592592592592,436) translate(61.2509765625 16.69921875)"/><use xlink:href="#c" transform="matrix(1,0,0,1,535.2592592592592,436) translate(112.130859375 16.69921875)"/><path d="M747.38 567.6l-36.14-62.05c-2.8-5-7.72-7.8-13.5-7.95h-71.92c-5.8.15-10.7 2.96-13.5 7.95l-36.14 61.9c-2.8 4.84-2.8 10.45 0 15.44l36.13 62.37c2.82 5.14 7.56 8.1 13.52 8.26h71.92c5.78-.15 10.7-3.12 13.5-8.26l36.14-61.9c2.8-5.15 2.8-10.77 0-15.76z" stroke="#000" stroke-opacity="0" fill="#4285f4"/><path d="M683.2 546.36l-34.58 10.6-8 4.6 11.62 11.37-15.77.96.33 14.67-8.76 10.93 54.52 54h15.2c5.8-.22 10.74-3.12 13.6-8.26l26.15-45.1z" stroke="#000" stroke-opacity="0" fill-opacity=".07"/><path d="M659.03 560.63h5.48v29.5h-5.47v-29.5zM635.65 574.2h4.2v17.6h-5.47v-16.34c0-.7.57-1.27 1.28-1.27zM683.68 574.2h4.2c.7 0 1.28.55 1.28 1.26v16.35h-5.48v-17.6z" stroke="#000" stroke-opacity="0" fill="#fff"/><path d="M635.75 571.48h52.04c.75 0 1.36.6 1.36 1.35v4.07h-54.78v-4.07c0-.74.6-1.35 1.37-1.35zM641.17 545.72h41.2c.87 0 1.3.44 1.3 1.32v13.63c0 .88-.43 1.32-1.3 1.32h-41.2c-.87 0-1.3-.45-1.3-1.33v-13.63c0-.88.43-1.32 1.3-1.32zM628.87 586.4H644c.9 0 1.34.44 1.34 1.32v10.9c0 .88-.45 1.33-1.34 1.33h-15.13c-.9 0-1.33-.45-1.33-1.33v-10.9c0-.88.44-1.33 1.33-1.33zM679.54 586.4h15.13c.9 0 1.33.44 1.33 1.32v10.9c0 .88-.44 1.33-1.33 1.33h-15.13c-.9 0-1.34-.45-1.34-1.33v-10.9c0-.88.45-1.33 1.34-1.33zM653.57 586.4h16.4c.92 0 1.38.45 1.38 1.36v10.82c0 .9-.46 1.37-1.38 1.37h-16.4c-.93 0-1.4-.47-1.4-1.37v-10.82c0-.9.48-1.37 1.4-1.37z" stroke="#000" stroke-opacity="0" fill="#fff"/><use xlink:href="#d" transform="matrix(1,0,0,1,574.0740740740741,658.5325555555555) translate(0.5 17.77777777777778)"/><use xlink:href="#e" transform="matrix(1,0,0,1,574.0740740740741,658.5325555555555) translate(94.14197530864197 17.77777777777778)"/><use xlink:href="#f" transform="matrix(1,0,0,1,574.0740740740741,658.5325555555555) translate(5.993827160493822 44.44444444444444)"/><use xlink:href="#g" transform="matrix(1,0,0,1,574.0740740740741,658.5325555555555) translate(120.62345679012346 44.44444444444444)"/><use xlink:href="#h" transform="matrix(1,0,0,1,574.0740740740741,658.5325555555555) translate(44.23456790123456 71.11111111111111)"/><g filter="url(#i)"><path d="M360 493.13a2 2 0 0 1 2-2h116.6a2 2 0 0 1 2 2V658a2 2 0 0 1-2 2H362a2 2 0 0 1-2-2z" fill="#fff"/><path d="M436.74 551.17c3.4 0 6.3-1.3 8.72-3.86 2.4-2.56 3.62-5.66 3.62-9.3 0-3.65-1.22-6.75-3.62-9.33-2.4-2.56-5.3-3.86-8.72-3.86-3.4 0-6.3 1.3-8.72 3.88-2.4 2.57-3.6 5.67-3.6 9.3 0 3.65 1.2 6.76 3.6 9.33 2.4 2.58 5.3 3.87 8.72 3.87zm-32.9 0c3.42 0 6.33-1.3 8.73-3.86 2.4-2.56 3.6-5.66 3.6-9.3 0-3.65-1.2-6.75-3.6-9.33-2.4-2.56-5.3-3.86-8.72-3.86-3.4 0-6.3 1.3-8.72 3.88-2.4 2.57-3.6 5.67-3.6 9.3 0 3.65 1.2 6.76 3.6 9.33 2.4 2.58 5.3 3.87 8.72 3.87zm0 8.8c-9.58 0-28.77 5.13-28.77 15.36v11h57.56v-11c0-10.25-19.18-15.37-28.78-15.37zm32.9 0c-1.2 0-2.55.08-4 .2 4.78 3.7 8.1 8.66 8.1 15.16v11h24.68v-11c0-10.25-19.2-15.37-28.78-15.37zm0 0" fill="#757575"/><use xlink:href="#j" transform="matrix(1,0,0,1,360,613) translate(43.5134736328125 28.05751953125)"/></g><path d="M481.1 575.57h76.66" stroke="#3a414a" fill="none"/><path d="M481.1 576.07h-.5v-1h.5z" stroke="#3a414a" stroke-width=".05" fill="#3a414a"/><path d="M572.52 575.57l-14.27 4.63v-9.27z" stroke="#3a414a" fill="#3a414a"/><path d="M749.92 575.57h98.97" stroke="#3a414a" fill="none"/><path d="M749.93 576.07h-.56l.1-1h.46z" stroke="#3a414a" stroke-width=".05" fill="#3a414a"/><path d="M863.65 575.57l-14.26 4.63v-9.27z" stroke="#3a414a" fill="#3a414a"/><path d="M901.05 497.6l30.52 77.97h91.57l-122.1-77.97z" stroke="#000" stroke-opacity="0" fill="#aecbfa"/><path d="M1023.14 575.57h-91.57l-30.52 77.96 122.1-77.96zM847.73 653.53l30.55-13.02 22.77-64.93H870.6l-22.87 77.96z" stroke="#000" stroke-opacity="0" fill="#4285f4"/><path d="M847.73 497.6l22.88 77.97h30.45l-22.77-65.03-30.55-12.94z" stroke="#000" stroke-opacity="0" fill="#aecbfa"/><path d="M865.27 513.2v124.74h61.4V513.2z" stroke="#000" stroke-opacity="0" fill-opacity="0"/><g><use xlink:href="#k" transform="matrix(1,0,0,1,847.7293671624379,658.5325555555555) translate(7.876543209876544 17.77777777777778)"/><use xlink:href="#l" transform="matrix(1,0,0,1,847.7293671624379,658.5325555555555) translate(71.9506172839506 17.77777777777778)"/><use xlink:href="#m" transform="matrix(1,0,0,1,847.7293671624379,658.5325555555555) translate(118.80246913580247 17.77777777777778)"/><use xlink:href="#n" transform="matrix(1,0,0,1,847.7293671624379,658.5325555555555) translate(132.320987654321 17.77777777777778)"/></g><defs><path d="M730-137c145 0 253-29 323-105v-327H716v-156h528v534C1148-51 964 20 729 20c-394 0-598-279-607-678v-127c-5-410 194-690 585-691 310-1 499 171 537 447h-192c-36-193-151-289-344-289-285 0-393 220-393 528v119c-5 296 140 534 415 534" id="o"/><path d="M584 20C278 26 81-227 91-551c10-320 175-545 491-551 308-5 503 247 494 573-9 322-175 543-492 549zm-2-970c-208 0-305 185-305 421 0 216 106 398 307 398 211 0 307-186 307-420 0-214-109-399-309-399" id="p"/><path d="M521 20C240 20 96-239 96-550c0-303 147-552 427-552 132 0 235 47 309 140l9-120h169V-26c4 277-183 454-459 452-165-1-334-81-400-187l96-111c79 98 176 147 291 147 180 1 288-109 286-290v-93C750-23 649 20 521 20zm48-965c-209 0-287 178-287 416 0 217 86 392 285 392 117 0 202-53 257-159v-494c-57-103-142-155-255-155" id="q"/><path d="M341 0H156v-1536h185V0" id="r"/><path d="M599-131c141 0 220-65 285-146l113 88C906-50 770 20 589 20 281 21 93-214 93-545c0-223 93-397 233-485 74-48 154-72 240-72 300 2 449 218 445 537v77H278c0 197 129 357 321 357zm227-509c-3-180-88-310-260-310-170 0-264 140-282 310h542" id="s"/><g id="a"><use transform="matrix(0.0087890625,0,0,0.0087890625,0,0)" xlink:href="#o"/><use transform="matrix(0.0087890625,0,0,0.0087890625,12.2607421875,0)" xlink:href="#p"/><use transform="matrix(0.0087890625,0,0,0.0087890625,22.5263671875,0)" xlink:href="#p"/><use transform="matrix(0.0087890625,0,0,0.0087890625,32.7919921875,0)" xlink:href="#q"/><use transform="matrix(0.0087890625,0,0,0.0087890625,42.890625,0)" xlink:href="#r"/><use transform="matrix(0.0087890625,0,0,0.0087890625,47.2587890625,0)" xlink:href="#s"/></g><path d="M688-137c238 0 323-102 359-325h193c-32 297-228 482-552 482-361 0-569-299-569-680 0-197 8-360 73-497 88-186 257-317 513-319 316-2 509 195 535 488h-193c-31-212-118-330-342-330-272 0-397 224-393 523v141c-3 282 115 517 376 517" id="t"/><path d="M491 20c-241-1-355-148-355-398v-704h185v699c0 164 67 246 200 246 141 0 235-53 282-158v-787h185V0H812l-4-107C736-22 630 20 491 20" id="u"/><path d="M520 20C244 20 95-247 95-550c0-298 151-550 427-552 127 0 227 43 301 130v-564h185V0H838l-9-116C755-25 652 20 520 20zm48-965c-210 0-288 177-288 416 0 218 87 392 286 392 117 0 203-53 257-158v-497c-55-102-140-153-255-153" id="v"/><g id="b"><use transform="matrix(0.0087890625,0,0,0.0087890625,0,0)" xlink:href="#t"/><use transform="matrix(0.0087890625,0,0,0.0087890625,11.7158203125,0)" xlink:href="#r"/><use transform="matrix(0.0087890625,0,0,0.0087890625,16.083984375,0)" xlink:href="#p"/><use transform="matrix(0.0087890625,0,0,0.0087890625,26.349609375,0)" xlink:href="#u"/><use transform="matrix(0.0087890625,0,0,0.0087890625,36.2724609375,0)" xlink:href="#v"/></g><path d="M1216-1011c-1 297-202 441-512 441H361V0H169v-1456h537c297-6 510 164 510 445zm-192 2c1-178-126-288-307-289H361v571h345c196 1 318-92 318-282" id="w"/><path d="M663-916c-163-27-288 18-338 148V0H140v-1082h180l3 125c61-97 147-145 258-145 36 0 63 5 82 14v172" id="x"/><path d="M19 279c92 0 127-48 127-150v-1211h185V125c0 208-94 312-283 312-41 0-78-6-113-18V271c21 5 49 8 84 8zm216-1543c-68 0-107-42-108-105 0-61 42-107 108-107 68 0 110 44 110 107s-42 105-110 105" id="y"/><path d="M277-555c0 244 77 420 297 424 127 2 249-93 255-210h175C980-127 805 20 574 20 258 20 81-222 92-562c11-319 164-533 481-540 237-5 426 165 431 392H829c-7-133-115-242-256-240-209 4-296 166-296 395" id="z"/><path d="M456 20C285 20 205-92 206-268v-671H9v-143h197v-262h185v262h202v143H391v671c-9 125 92 149 207 118V0c-49 13-96 20-142 20" id="A"/><g id="c"><use transform="matrix(0.0087890625,0,0,0.0087890625,0,0)" xlink:href="#w"/><use transform="matrix(0.0087890625,0,0,0.0087890625,11.35546875,0)" xlink:href="#x"/><use transform="matrix(0.0087890625,0,0,0.0087890625,17.2705078125,0)" xlink:href="#p"/><use transform="matrix(0.0087890625,0,0,0.0087890625,27.5361328125,0)" xlink:href="#y"/><use transform="matrix(0.0087890625,0,0,0.0087890625,31.833984375,0)" xlink:href="#s"/><use transform="matrix(0.0087890625,0,0,0.0087890625,41.3701171875,0)" xlink:href="#z"/><use transform="matrix(0.0087890625,0,0,0.0087890625,50.7919921875,0)" xlink:href="#A"/></g><path fill="#3a414a" d="M233-177c-1 41-23 64-60 70L243 0h-38l-65-103H63V0H30v-248c88 3 205-21 203 71zM63-129c60-2 137 13 137-47 0-61-80-42-137-45v92" id="B"/><path fill="#3a414a" d="M100-194c63 0 86 42 84 106H49c0 40 14 67 53 68 26 1 43-12 49-29l28 8c-11 28-37 45-77 45C44 4 14-33 15-96c1-61 26-98 85-98zm52 81c6-60-76-77-97-28-3 7-6 17-6 28h103" id="C"/><path fill="#3a414a" d="M177-190C167-65 218 103 67 71c-23-6-38-20-44-43l32-5c15 47 100 32 89-28v-30C133-14 115 1 83 1 29 1 15-40 15-95c0-56 16-97 71-98 29-1 48 16 59 35 1-10 0-23 2-32h30zM94-22c36 0 50-32 50-73 0-42-14-75-50-75-39 0-46 34-46 75s6 73 46 73" id="D"/><path fill="#3a414a" d="M24-231v-30h32v30H24zM24 0v-190h32V0H24" id="E"/><path fill="#3a414a" d="M100-194c62-1 85 37 85 99 1 63-27 99-86 99S16-35 15-95c0-66 28-99 85-99zM99-20c44 1 53-31 53-75 0-43-8-75-51-75s-53 32-53 75 10 74 51 75" id="F"/><path fill="#3a414a" d="M117-194c89-4 53 116 60 194h-32v-121c0-31-8-49-39-48C34-167 62-67 57 0H25l-1-190h30c1 10-1 24 2 32 11-22 29-35 61-36" id="G"/><path fill="#3a414a" d="M141-36C126-15 110 5 73 4 37 3 15-17 15-53c-1-64 63-63 125-63 3-35-9-54-41-54-24 1-41 7-42 31l-33-3c5-37 33-52 76-52 45 0 72 20 72 64v82c-1 20 7 32 28 27v20c-31 9-61-2-59-35zM48-53c0 20 12 33 32 33 41-3 63-29 60-74-43 2-92-5-92 41" id="H"/><path fill="#3a414a" d="M24 0v-261h32V0H24" id="I"/><g id="d"><use transform="matrix(0.06172839506172839,0,0,0.06172839506172839,0,0)" xlink:href="#B"/><use transform="matrix(0.06172839506172839,0,0,0.06172839506172839,15.987654320987653,0)" xlink:href="#C"/><use transform="matrix(0.06172839506172839,0,0,0.06172839506172839,28.333333333333332,0)" xlink:href="#D"/><use transform="matrix(0.06172839506172839,0,0,0.06172839506172839,40.67901234567901,0)" xlink:href="#E"/><use transform="matrix(0.06172839506172839,0,0,0.06172839506172839,45.55555555555556,0)" xlink:href="#F"/><use transform="matrix(0.06172839506172839,0,0,0.06172839506172839,57.901234567901234,0)" xlink:href="#G"/><use transform="matrix(0.06172839506172839,0,0,0.06172839506172839,70.24691358024691,0)" xlink:href="#H"/><use transform="matrix(0.06172839506172839,0,0,0.06172839506172839,82.5925925925926,0)" xlink:href="#I"/></g><path fill="#3a414a" d="M30 0v-248h187v28H63v79h144v27H63v87h162V0H30" id="J"/><path fill="#3a414a" d="M141 0L90-78 38 0H4l68-98-65-92h35l48 74 47-74h35l-64 92 68 98h-35" id="K"/><path fill="#3a414a" d="M59-47c-2 24 18 29 38 22v24C64 9 27 4 27-40v-127H5v-23h24l9-43h21v43h35v23H59v120" id="L"/><path fill="#3a414a" d="M114-163C36-179 61-72 57 0H25l-1-190h30c1 12-1 29 2 39 6-27 23-49 58-41v29" id="M"/><g id="e"><use transform="matrix(0.06172839506172839,0,0,0.06172839506172839,0,0)" xlink:href="#J"/><use transform="matrix(0.06172839506172839,0,0,0.06172839506172839,14.814814814814813,0)" xlink:href="#K"/><use transform="matrix(0.06172839506172839,0,0,0.06172839506172839,25.925925925925924,0)" xlink:href="#L"/><use transform="matrix(0.06172839506172839,0,0,0.06172839506172839,32.098765432098766,0)" xlink:href="#C"/><use transform="matrix(0.06172839506172839,0,0,0.06172839506172839,44.44444444444444,0)" xlink:href="#M"/><use transform="matrix(0.06172839506172839,0,0,0.06172839506172839,51.79012345679012,0)" xlink:href="#G"/><use transform="matrix(0.06172839506172839,0,0,0.06172839506172839,64.1358024691358,0)" xlink:href="#H"/><use transform="matrix(0.06172839506172839,0,0,0.06172839506172839,76.48148148148148,0)" xlink:href="#I"/></g><path fill="#3a414a" d="M205 0l-28-72H64L36 0H1l101-248h38L239 0h-34zm-38-99l-47-123c-12 45-31 82-46 123h93" id="N"/><path fill="#3a414a" d="M115-194c55 1 70 41 70 98S169 2 115 4C84 4 66-9 55-30l1 105H24l-1-265h31l2 30c10-21 28-34 59-34zm-8 174c40 0 45-34 45-75s-6-73-45-74c-42 0-51 32-51 76 0 43 10 73 51 73" id="O"/><path fill="#3a414a" d="M96-169c-40 0-48 33-48 73s9 75 48 75c24 0 41-14 43-38l32 2c-6 37-31 61-74 61-59 0-76-41-82-99-10-93 101-131 147-64 4 7 5 14 7 22l-32 3c-4-21-16-35-41-35" id="P"/><g id="f"><use transform="matrix(0.06172839506172839,0,0,0.06172839506172839,0,0)" xlink:href="#N"/><use transform="matrix(0.06172839506172839,0,0,0.06172839506172839,14.814814814814813,0)" xlink:href="#O"/><use transform="matrix(0.06172839506172839,0,0,0.06172839506172839,27.160493827160494,0)" xlink:href="#O"/><use transform="matrix(0.06172839506172839,0,0,0.06172839506172839,39.50617283950617,0)" xlink:href="#I"/><use transform="matrix(0.06172839506172839,0,0,0.06172839506172839,44.382716049382715,0)" xlink:href="#E"/><use transform="matrix(0.06172839506172839,0,0,0.06172839506172839,49.25925925925926,0)" xlink:href="#P"/><use transform="matrix(0.06172839506172839,0,0,0.06172839506172839,60.37037037037037,0)" xlink:href="#H"/><use transform="matrix(0.06172839506172839,0,0,0.06172839506172839,72.71604938271605,0)" xlink:href="#L"/><use transform="matrix(0.06172839506172839,0,0,0.06172839506172839,78.88888888888889,0)" xlink:href="#E"/><use transform="matrix(0.06172839506172839,0,0,0.06172839506172839,83.76543209876543,0)" xlink:href="#F"/><use transform="matrix(0.06172839506172839,0,0,0.06172839506172839,96.11111111111111,0)" xlink:href="#G"/></g><path fill="#3a414a" d="M30 0v-248h33v221h125V0H30" id="Q"/><path fill="#3a414a" d="M85-194c31 0 48 13 60 33l-1-100h32l1 261h-30c-2-10 0-23-3-31C134-8 116 4 85 4 32 4 16-35 15-94c0-66 23-100 70-100zm9 24c-40 0-46 34-46 75 0 40 6 74 45 74 42 0 51-32 51-76 0-42-9-74-50-73" id="R"/><g id="g"><use transform="matrix(0.06172839506172839,0,0,0.06172839506172839,0,0)" xlink:href="#Q"/><use transform="matrix(0.06172839506172839,0,0,0.06172839506172839,12.345679012345679,0)" xlink:href="#F"/><use transform="matrix(0.06172839506172839,0,0,0.06172839506172839,24.691358024691358,0)" xlink:href="#H"/><use transform="matrix(0.06172839506172839,0,0,0.06172839506172839,37.03703703703704,0)" xlink:href="#R"/></g><path fill="#3a414a" d="M160-131c35 5 61 23 61 61C221 17 115-2 30 0v-248c76 3 177-17 177 60 0 33-19 50-47 57zm-97-11c50-1 110 9 110-42 0-47-63-36-110-37v79zm0 115c55-2 124 14 124-45 0-56-70-42-124-44v89" id="S"/><g id="h"><use transform="matrix(0.06172839506172839,0,0,0.06172839506172839,0,0)" xlink:href="#S"/><use transform="matrix(0.06172839506172839,0,0,0.06172839506172839,14.814814814814813,0)" xlink:href="#H"/><use transform="matrix(0.06172839506172839,0,0,0.06172839506172839,27.160493827160494,0)" xlink:href="#I"/><use transform="matrix(0.06172839506172839,0,0,0.06172839506172839,32.03703703703704,0)" xlink:href="#H"/><use transform="matrix(0.06172839506172839,0,0,0.06172839506172839,44.382716049382715,0)" xlink:href="#G"/><use transform="matrix(0.06172839506172839,0,0,0.06172839506172839,56.72839506172839,0)" xlink:href="#P"/><use transform="matrix(0.06172839506172839,0,0,0.06172839506172839,67.8395061728395,0)" xlink:href="#C"/><use transform="matrix(0.06172839506172839,0,0,0.06172839506172839,80.18518518518519,0)" xlink:href="#M"/></g><path d="M665-137c214 0 337-121 336-332v-987h193v990c-3 300-218 486-529 486-309 0-526-181-525-484v-992h190v986c-1 210 123 333 335 333" id="T"/><path d="M538-131c121 0 232-49 232-156 0-50-20-88-56-117-73-60-334-92-420-143-92-55-162-110-162-238 0-190 192-317 400-317 223 0 414 129 413 338H759c0-108-110-186-227-186-119 0-215 53-215 159 0 45 18 78 53 101 76 52 331 90 416 139 98 57 169 115 169 251C955-92 760 20 538 20c-176 0-314-68-386-174-38-55-57-115-57-179h185c6 129 116 202 258 202" id="U"/><g id="j"><use transform="matrix(0.0065107421875,0,0,0.0065107421875,0,0)" xlink:href="#T"/><use transform="matrix(0.0065107421875,0,0,0.0065107421875,8.646265625,0)" xlink:href="#U"/><use transform="matrix(0.0065107421875,0,0,0.0065107421875,15.521609374999999,0)" xlink:href="#s"/><use transform="matrix(0.0065107421875,0,0,0.0065107421875,22.5857646484375,0)" xlink:href="#x"/><use transform="matrix(0.0065107421875,0,0,0.0065107421875,27.097708984375,0)" xlink:href="#U"/></g><filter id="i" filterUnits="objectBoundingBox" x="-.01" y="0" width="1.02" height="1.02"><feOffset result="offOut" in="SourceAlpha" dy="1"/><feGaussianBlur result="blurOut" in="offOut" stdDeviation=".75"/><feColorMatrix result="colorOut" in="blurOut" values="0 0 0 0 0 0 0 0 0 0 0 0 0 0 0 0 0 0 0.4 0"/><feBlend in="SourceGraphic" in2="colorOut"/></filter><path fill="#3a414a" d="M212-179c-10-28-35-45-73-45-59 0-87 40-87 99 0 60 29 101 89 101 43 0 62-24 78-52l27 14C228-24 195 4 139 4 59 4 22-46 18-125c-6-104 99-153 187-111 19 9 31 26 39 46" id="V"/><path fill="#3a414a" d="M84 4C-5 8 30-112 23-190h32v120c0 31 7 50 39 49 72-2 45-101 50-169h31l1 190h-30c-1-10 1-25-2-33-11 22-28 36-60 37" id="W"/><g id="k"><use transform="matrix(0.06172839506172839,0,0,0.06172839506172839,0,0)" xlink:href="#V"/><use transform="matrix(0.06172839506172839,0,0,0.06172839506172839,15.987654320987653,0)" xlink:href="#I"/><use transform="matrix(0.06172839506172839,0,0,0.06172839506172839,20.864197530864196,0)" xlink:href="#F"/><use transform="matrix(0.06172839506172839,0,0,0.06172839506172839,33.20987654320987,0)" xlink:href="#W"/><use transform="matrix(0.06172839506172839,0,0,0.06172839506172839,45.55555555555555,0)" xlink:href="#R"/></g><g id="l"><use transform="matrix(0.06172839506172839,0,0,0.06172839506172839,0,0)" xlink:href="#B"/><use transform="matrix(0.06172839506172839,0,0,0.06172839506172839,15.987654320987653,0)" xlink:href="#W"/><use transform="matrix(0.06172839506172839,0,0,0.06172839506172839,28.333333333333332,0)" xlink:href="#G"/></g><path fill="#3a414a" d="M16-82v-28h88v28H16" id="X"/><use transform="matrix(0.06172839506172839,0,0,0.06172839506172839,0,0)" xlink:href="#X" id="m"/><path fill="#3a414a" d="M30-248c87 1 191-15 191 75 0 78-77 80-158 76V0H30v-248zm33 125c57 0 124 11 124-50 0-59-68-47-124-48v98" id="Y"/><path fill="#3a414a" d="M33 0v-248h34V0H33" id="Z"/><g id="n"><use transform="matrix(0.06172839506172839,0,0,0.06172839506172839,0,0)" xlink:href="#N"/><use transform="matrix(0.06172839506172839,0,0,0.06172839506172839,14.814814814814813,0)" xlink:href="#Y"/><use transform="matrix(0.06172839506172839,0,0,0.06172839506172839,29.629629629629626,0)" xlink:href="#Z"/></g></defs></g></svg>